# xmcd
#
# Track frame offsets: 
#        150
#        14350
#        34556
#        45083
#        60489
#        71240
#        101361
#        112140
#        121454
#        132796
#        145416
#        160034
#        177804
#
# Disc length: 2601 seconds
#
# Revision: 0
# Processed by: cddbd v1.5.2PL0 Copyright (c) Steve Scherf et al.
# Submitted via: ExactAudioCopy v0.99pb3
#
DISCID=a90a270d
DTITLE=New Estate - Is It Real?
DYEAR=2007
DGENRE=Low Transit Industries
TTITLE0=While You Were Talking
TTITLE1=Let Somebody Down
TTITLE2=Out Of The Storm
TTITLE3=On The Bay
TTITLE4=Kidnapped
TTITLE5=The Rubber Carpet
TTITLE6=Hergé
TTITLE7=Last Train To Belgrave
TTITLE8=OK Alright
TTITLE9=Boogie Rock
TTITLE10=Don't Know
TTITLE11=Supposed To Be
TTITLE12=Tables Turned
EXTD=
EXTT0=
EXTT1=
EXTT2=
EXTT3=
EXTT4=
EXTT5=
EXTT6=
EXTT7=
EXTT8=
EXTT9=
EXTT10=
EXTT11=
EXTT12=
PLAYORDER=
